<svg  
class="w-10 h-10 " 
xmlns="http://www.w3.org/2000/svg" 
version="1.0" 
viewBox="0 0 1024 1024">
<path fill="#111" d="M0 512v512h1024V0H0zm890.8-391.7c17.2 17.3 18 18.6 14.4 23.7-.9 1.4-21.2 21.8-44.9 45.4l-43.2 42.9-4.8-4.1c-7.6-6.4-34.5-34.1-34.1-35.1.1-.5 20-20.8 44.1-45L866 104h4.3c4.2 0 4.6.3 20.5 16.3M545.6 109c46.8 3.6 89.5 13.9 131.9 32 24.4 10.4 54.5 27.5 71.8 40.7l5.7 4.4v33.2l-9.6 9.3-9.5 9.4-10.2-7.7c-15.2-11.6-33.2-22.5-52.2-31.8-88.3-43.3-191.1-47.2-287.5-10.8-21.4 8-52 23.6-52 26.4 0 .5 33.1.9 83.5.9H501v488h59.3c64.3 0 70.6-.4 86.1-5.5 10-3.3 20.3-8.5 28.1-14 7.1-5.1 19.8-18 24.4-24.8s11.6-22 13.6-29.7c2.6-10.1 3.1-28.9 1.1-39.1-7.6-37.3-37.2-65.7-75.5-72.4-6.6-1.2-18.7-1.5-56.7-1.5H533v-84h30.6c35.2 0 39.6-.6 53.9-7.5 10.4-5.1 17.7-11.1 24-20 9.2-12.8 13-24.6 12.9-40 0-12-1.9-19.9-7.3-31-7.1-14.4-17.7-24.8-32.6-32-15.4-7.5-17.1-7.8-51.2-8.2l-30.3-.5v-78.3l46.7.6c38.5.5 48 .9 53.6 2.3 43.6 10.5 80.4 39.5 100.1 79.1 11 22 16 42.7 16 66.5 0 33.3-9.1 59.7-30.1 87.2l-4.4 5.7 6.9 3.5c17.1 8.6 37.4 25.2 49.8 40.7 32 40.1 44 90.9 33.4 141.7-14.9 71.1-73.7 128.4-146.5 142.6-16.2 3.2-26.8 3.6-91.7 3.6H501l-.2 20-.3 20-11.5-7.6c-13.9-9.3-17.2-11.8-27.3-20.7-14.2-12.7-24.1-28.1-28.9-45.2l-2.3-8V293l-92.4-.2-92.3-.3-7.2 7.5c-3.9 4.2-11.3 12.5-16.4 18.6l-9.3 11-20.7-4.3c-11.4-2.3-23.3-4.8-26.5-5.5l-5.8-1.3 6.8-11.3c35.3-58.7 88.7-111.4 146.7-144.7C382.9 122.7 468 103 545.6 109m232.3 135.4 6.4 6.4-4.3 5.1c-2.3 2.8-5.3 5.7-6.5 6.5-2.1 1.4-2.5 1.2-7.2-3.7-8.5-9-8.4-8-1.7-14.8 3.2-3.2 6.1-5.9 6.4-5.9s3.4 2.9 6.9 6.4m57.3 19.3c4.6 5 19 24.6 26.3 35.8 67.3 103.5 84.3 230.3 47 349.2C891 704.4 858.3 758 816.1 800c-17.8 17.7-24.5 23.1-31.6 25.4-20.7 6.7-54.4 6.2-93.3-1.5l-5.3-1.1 16.8-8.3c26.5-13.2 47-27.6 68.7-48.5 52.7-50.8 85.6-116.5 97.7-195.5 2.6-16.8 3.7-61.3 2-80.2-6.3-68.7-32.3-133-77.2-190.8-5-6.6-9.6-12.5-10.1-13.1-.5-.7 3.7-5.5 11.5-13.2l12.2-12.2h12.6c12.4 0 12.6 0 15.1 2.7m-521.8 94.5c19.4 6.4 33.6 25.8 33.6 46 0 6.3-.2 6.9-1.7 6.3-22.7-9-57.3-18.3-84.5-22.6-5.5-.8-7.8-1.6-7.8-2.6 0-2.5 6.6-11.7 12.2-16.9 8-7.6 16-11.1 28.8-12.7 4.7-.6 13.5.5 19.4 2.5m-148.9 1.3c38.8 5.4 54.1 8.8 63.1 14 8.8 5.2 16.2 14.9 18.7 24.9 1.3 4.8 1.5 5.1 5.3 5.9 42.6 8.1 72.2 15.4 95.4 23.4 11.4 3.9 26 10.6 35.8 16.3 9.4 5.6 22.5 15 21.9 15.7-.3.2-8.3-1.8-17.8-4.6-18.8-5.3-42.9-11.5-49.5-12.6-3.4-.5-4.6-.2-7 1.8-16 13.1-41.2 14.7-58.4 3.7-6.2-4-13.9-12.3-18-19.5-1.7-3-3.5-5.7-3.9-5.9-.4-.3-6.5-1.6-13.7-3-31.4-6.2-73.2-12.4-99.1-14.7-11.6-1-13.3-1.4-13.3-3 0-2.8 6.7-21.2 12.2-33.5 4.6-10.5 5.3-11.4 7.8-11.4 1.5 0 10.7 1.1 20.5 2.5M580.3 384c3.1 2.4 4.1 6.3 2.6 9.3-3.4 6.3-10.4 6.3-13.7 0-1.8-3.4-1.4-6.2 1.3-8.8 2.9-3 6.4-3.2 9.8-.5m225 23.3c4.5 4.2 5.6 9.3 3.2 14.6-2.1 4.7-6 7.1-11.7 7.1-3.6 0-5.2-.6-8.3-3.3-3.2-2.8-3.8-4-4.3-8.5-.4-5-.3-5.3 3.6-9.2 3.6-3.6 4.5-4 9-4 4.3 0 5.6.5 8.5 3.3m-639.5 46.3c25.4 3.3 46.3 10.9 65.7 23.9 30 20.1 50.5 50.3 58.1 85.5 3.2 15.3 2.7 42-1.2 55.8-.6 2.2-.5 2.2 3.7 1.5 2.4-.4 10.3-.8 17.4-.8 14.8.1 23.7 2.1 36.1 8 8.3 4 21.3 13.4 26.4 19.1 20.8 23.2 31 55.5 28 89.4-.6 6.9-1.4 14.2-1.8 16.3l-.7 3.9-7-5.7c-28.1-22.8-40.2-31.8-62.1-46.2-59.4-38.9-129.2-65.4-187.9-71.3-6-.6-12.9-1.3-15.2-1.6l-4.2-.5-2-6.7c-5.4-18-10.3-47.3-12-71.2-2.2-29.7-1.2-56 3-85.7l2.2-15.2 8.1-.4c12.6-.6 33 .3 45.4 1.9m175.4 57.1c2.2 2 2.3 3.1.1 5.5-2.3 2.5-5 2.3-6.9-.7-1.6-2.4-1.6-2.7.1-4.5 2.2-2.4 4.3-2.5 6.7-.3m40.1 27.3c8 6.3 3.7 19-6.4 19-9.8 0-14.1-11.8-6.9-19 2.7-2.7 9.8-2.7 13.3 0m218.4 37c4.3 2.6 5.6 5.4 5 10.9-.7 6-4.1 9.1-10.2 9.1-11.3 0-15.6-14.3-6.1-20.1 4-2.4 7.3-2.4 11.3.1m-211.5 38.7c2.2 2 2.3 4.1.1 6.5-2 2.2-3.1 2.3-5.5.1-2.2-2-2.3-4.1-.1-6.5 2-2.2 3.1-2.3 5.5-.1m-230.5 69.4c45.5 3.8 101.7 21.7 147.4 47 30.3 16.7 51.8 31.2 104.9 70.5 40.1 29.8 56.5 40.8 80 53.6 17.4 9.5 42.3 19 60.1 22.9 14.7 3.1 42.4 3.8 57.6 1.4 5.9-1 11.4-2.1 12-2.4.7-.4-4.7-2.4-12-4.5-24.7-7.2-50-17-75.5-29.2-12.8-6-13.3-6.4-13-9.1l.3-2.8 20 .2c48.1.6 81.1 5 137.5 18.3 24.6 5.8 34.6 7.8 49.5 10.1 7.1 1.1 13.1 2.1 13.2 2.3.2.1-5.4 4-12.4 8.6-31.1 20.5-71.8 37.7-113.3 48-26.2 6.5-46.8 9.4-78.5 11.1-19 1.1-24.8 1-43-.4-11.5-1-25.7-2.4-31.5-3.3-42.8-6.2-86.8-20.3-127-40.4-42.1-21.1-76.7-46.6-111.6-82.1-12.5-12.7-27.4-29-27.4-29.9 0-.3 2.8-2.4 6.3-4.6 8.2-5.4 20.4-10 31.9-12 10.9-1.9 31.4-2.1 40.7-.4 3.4.6 6.5.9 6.8.6.3-.2-3.3-2.3-8-4.6-28.6-13.8-69.6-13.7-89.9.2l-2.6 1.8-10.5-15.8c-5.7-8.6-12.4-19.5-14.9-24.2-6.6-12.3-13.5-26.1-14.7-29.3-1-2.6-.9-2.7 1.9-2.7 1.6 0 8.7.5 15.7 1.1m65.5 151.6 2.8 2.9-19.8 19.4C159 903.6 155 907.4 155 905.5c0-1 1.1-15.4 2.5-31.9l2.6-30.1 17.6-17.7 17.7-17.7 12.5 11.9c6.9 6.5 13.8 13.1 15.3 14.7"/><path fill="#FFFFFF" d="M193.6 586.2c5.2 15 9.4 22.7 15.8 28.6 5.6 5.2 7.3 6 23.6 11.7 7.4 2.6 16.1 6 19.3 7.7 3.3 1.6 6.1 2.8 6.3 2.6.7-.8-2.6-18.4-4.5-24.1-7-20.2-20.6-33.3-39.6-38.2-3.3-.8-10.2-1.5-15.7-1.5h-9.7zM298.5 780c-6.2 1.1-13.5 3.1-13.5 3.7 0 3.1 11 15.5 18.4 20.8 9.7 6.9 20.5 10.4 37.1 12 34.5 3.2 68.3 13.9 97.4 30.6 6.6 3.8-8.3-9.6-22.8-20.4-23-17.2-49.4-32.8-67.1-39.6-15.8-6.2-37.5-9.2-49.5-7.1"/></svg>